<svg width="25" height="25" viewBox="0 0 25 25" fill="none" xmlns="http://www.w3.org/2000/svg">
<path d="M12.5 12.2657C11.2325 12.2657 10.1821 11.8491 9.34875 11.0157C8.51542 10.1824 8.09875 9.13199 8.09875 7.86449C8.09875 6.59741 8.51542 5.5472 9.34875 4.71387C10.1821 3.88053 11.2325 3.46387 12.5 3.46387C13.7675 3.46387 14.8221 3.88053 15.6637 4.71387C16.5058 5.5472 16.9269 6.59741 16.9269 7.86449C16.9269 9.13199 16.5058 10.1824 15.6637 11.0157C14.8221 11.8491 13.7675 12.2657 12.5 12.2657ZM3.75 21.4582V18.4114C3.75 17.6997 3.93229 17.0747 4.29688 16.5364C4.66146 15.9985 5.13896 15.5818 5.72937 15.2864C6.87521 14.7485 8.00792 14.3449 9.1275 14.0757C10.2475 13.8066 11.3717 13.672 12.5 13.672C13.6458 13.672 14.7744 13.811 15.8856 14.0889C16.9965 14.3664 18.1248 14.7655 19.2706 15.2864C19.861 15.5643 20.3385 15.9768 20.7031 16.5239C21.0677 17.0705 21.25 17.6997 21.25 18.4114V21.4582H3.75ZM6.04187 19.167H18.9581V18.4639C18.9581 18.238 18.8844 18.0166 18.7369 17.7995C18.5894 17.5824 18.4115 17.4218 18.2031 17.3176C17.196 16.8318 16.2413 16.4889 15.3387 16.2889C14.4358 16.0893 13.4896 15.9895 12.5 15.9895C11.5279 15.9895 10.5773 16.0893 9.64813 16.2889C8.71938 16.4889 7.76021 16.8318 6.77063 17.3176C6.56229 17.4218 6.38875 17.578 6.25 17.7864C6.11125 17.9947 6.04187 18.2205 6.04187 18.4639V19.167ZM12.5 9.97387C13.1075 9.97387 13.611 9.77428 14.0106 9.37512C14.4098 8.97595 14.6094 8.47241 14.6094 7.86449C14.6094 7.25699 14.4098 6.75366 14.0106 6.35449C13.611 5.95491 13.1075 5.75512 12.5 5.75512C11.8925 5.75512 11.389 5.95491 10.9894 6.35449C10.5902 6.75366 10.3906 7.25699 10.3906 7.86449C10.3906 8.47241 10.5902 8.97595 10.9894 9.37512C11.389 9.77428 11.8925 9.97387 12.5 9.97387Z" fill="white"/>
</svg>
