<svg width="60" height="60" viewBox="0 0 60 60" fill="none" xmlns="http://www.w3.org/2000/svg">
<path d="M34.9995 25.437V22.0005C36.3745 21.4165 37.781 20.979 39.219 20.688C40.656 20.396 42.1665 20.25 43.7505 20.25C44.8335 20.25 45.896 20.3335 46.938 20.5005C47.979 20.6665 48.9995 20.8745 49.9995 21.1245V24.312C48.9995 23.937 47.989 23.656 46.968 23.469C45.948 23.281 44.8755 23.187 43.7505 23.187C42.1665 23.187 40.6455 23.385 39.1875 23.781C37.7295 24.177 36.3335 24.729 34.9995 25.437ZM34.9995 39.1875V35.7495C36.3745 35.1665 37.781 34.729 39.219 34.437C40.656 34.146 42.1665 34.0005 43.7505 34.0005C44.8335 34.0005 45.896 34.0835 46.938 34.2495C47.979 34.4165 48.9995 34.625 49.9995 34.875V38.0625C48.9995 37.6875 47.989 37.406 46.968 37.218C45.948 37.031 44.8755 36.9375 43.7505 36.9375C42.1665 36.9375 40.6455 37.125 39.1875 37.5C37.7295 37.875 36.3335 38.4375 34.9995 39.1875ZM34.9995 32.313V28.875C36.3745 28.292 37.781 27.8545 39.219 27.5625C40.656 27.2705 42.1665 27.1245 43.7505 27.1245C44.8335 27.1245 45.896 27.208 46.938 27.375C47.979 27.542 48.9995 27.7505 49.9995 28.0005V31.188C48.9995 30.813 47.989 30.5315 46.968 30.3435C45.948 30.1565 44.8755 30.063 43.7505 30.063C42.1665 30.063 40.6455 30.261 39.1875 30.657C37.7295 31.052 36.3335 31.604 34.9995 32.313ZM15.75 41.937C17.875 41.937 19.9585 42.187 22.0005 42.687C24.0415 43.187 26.0415 43.9165 28.0005 44.8755V18.8745C26.1665 17.7085 24.208 16.813 22.125 16.188C20.042 15.563 17.917 15.2505 15.75 15.2505C14.208 15.2505 12.6765 15.438 11.1555 15.813C9.63549 16.188 8.14599 16.667 6.68699 17.25V43.563C8.02099 43.021 9.47949 42.6145 11.0625 42.3435C12.6455 42.0725 14.208 41.937 15.75 41.937ZM32.187 44.8755C34.187 43.9165 36.156 43.187 38.094 42.687C40.031 42.187 42.083 41.937 44.25 41.937C45.792 41.937 47.365 42.062 48.969 42.312C50.573 42.562 52.021 42.9165 53.313 43.3755V17.25C51.938 16.542 50.4795 16.0315 48.9375 15.7185C47.3955 15.4065 45.833 15.2505 44.25 15.2505C42.083 15.2505 39.979 15.563 37.938 16.188C35.896 16.813 33.979 17.7085 32.187 18.8745V44.8755ZM30.1875 52.188C28.0625 50.604 25.781 49.3435 23.343 48.4065C20.906 47.4685 18.375 46.9995 15.75 46.9995C13.375 46.9995 10.844 47.552 8.15699 48.657C5.46899 49.761 3.27099 50.8755 1.56299 52.0005V13.812C3.47899 12.646 5.68699 11.7505 8.18699 11.1255C10.687 10.5005 13.187 10.188 15.687 10.188C18.271 10.188 20.7815 10.5315 23.2185 11.2185C25.6565 11.9065 27.938 12.9585 30.063 14.3745C32.188 12.9585 34.4585 11.9065 36.8745 11.2185C39.2915 10.5315 41.771 10.188 44.313 10.188C46.813 10.188 49.323 10.5005 51.843 11.1255C54.364 11.7505 56.562 12.646 58.437 13.812V52.0005C56.771 50.8335 54.5835 49.7085 51.8745 48.6255C49.1665 47.5415 46.625 46.9995 44.25 46.9995C41.667 46.9995 39.198 47.479 36.843 48.438C34.489 49.396 32.2705 50.646 30.1875 52.188Z" fill="white"/>
</svg>
