<svg width="20" height="20" viewBox="0 0 20 20" fill="none" xmlns="http://www.w3.org/2000/svg">
<path d="M6.87484 13.9998L9.99984 10.8748L13.1248 13.9998L13.9998 13.1248L10.8748 9.99984L13.9998 6.87484L13.1248 5.99984L9.99984 9.12484L6.87484 5.99984L5.99984 6.87484L9.12484 9.99984L5.99984 13.1248L6.87484 13.9998ZM9.99984 18.3332C8.86095 18.3332 7.78456 18.1144 6.77067 17.6769C5.75678 17.2394 4.87137 16.6422 4.11442 15.8853C3.35748 15.1283 2.76025 14.2429 2.32275 13.229C1.88525 12.2151 1.6665 11.1387 1.6665 9.99984C1.6665 8.84706 1.88525 7.76373 2.32275 6.74984C2.76025 5.73595 3.35748 4.854 4.11442 4.104C4.87137 3.354 5.75678 2.76025 6.77067 2.32275C7.78456 1.88525 8.86095 1.6665 9.99984 1.6665C11.1526 1.6665 12.2359 1.88525 13.2498 2.32275C14.2637 2.76025 15.1457 3.354 15.8957 4.104C16.6457 4.854 17.2394 5.73595 17.6769 6.74984C18.1144 7.76373 18.3332 8.84706 18.3332 9.99984C18.3332 11.1387 18.1144 12.2151 17.6769 13.229C17.2394 14.2429 16.6457 15.1283 15.8957 15.8853C15.1457 16.6422 14.2637 17.2394 13.2498 17.6769C12.2359 18.1144 11.1526 18.3332 9.99984 18.3332ZM9.99984 17.0832C11.9721 17.0832 13.6457 16.3922 15.0207 15.0103C16.3957 13.6283 17.0832 11.9582 17.0832 9.99984C17.0832 8.02762 16.3957 6.354 15.0207 4.979C13.6457 3.604 11.9721 2.9165 9.99984 2.9165C8.0415 2.9165 6.37137 3.604 4.98942 4.979C3.60748 6.354 2.9165 8.02762 2.9165 9.99984C2.9165 11.9582 3.60748 13.6283 4.98942 15.0103C6.37137 16.3922 8.0415 17.0832 9.99984 17.0832Z" fill="#1C1C1C"/>
</svg>
