<svg width="23" height="23" viewBox="0 0 23 23" fill="none" xmlns="http://www.w3.org/2000/svg">
<path d="M6.8281 21.2271C6.33283 21.2271 5.90963 21.0514 5.5585 20.6999C5.20698 20.3484 5.03122 19.9252 5.03122 19.4303C5.03122 18.9511 5.20698 18.5358 5.5585 18.1842C5.90963 17.8327 6.32478 17.657 6.80395 17.657C7.29921 17.657 7.7226 17.8327 8.07412 18.1842C8.42525 18.5358 8.60082 18.959 8.60082 19.4538C8.60082 19.9491 8.42525 20.3685 8.07412 20.7119C7.7226 21.0554 7.30726 21.2271 6.8281 21.2271ZM16.4116 21.2271C15.9164 21.2271 15.493 21.0514 15.1414 20.6999C14.7903 20.3484 14.6147 19.9252 14.6147 19.4303C14.6147 18.9511 14.7903 18.5358 15.1414 18.1842C15.493 17.8327 15.9083 17.657 16.3875 17.657C16.8827 17.657 17.3059 17.8327 17.6571 18.1842C18.0086 18.5358 18.1843 18.959 18.1843 19.4538C18.1843 19.9491 18.0086 20.3685 17.6571 20.7119C17.3059 21.0554 16.8908 21.2271 16.4116 21.2271ZM6.01332 5.58197L8.2656 10.3021H15.0696L17.6335 5.58197H6.01332ZM3.52185 16.3155L6.39685 11.0928L2.9227 3.68965H0.958496V1.74902H4.14457L5.03122 3.64135H20.9875L16.2679 12.2428H7.95395L6.80395 14.3749H18.3522V16.3155H3.52185Z" fill="white"/>
</svg>
