<svg width="20" height="20" viewBox="0 0 20 20" fill="none" xmlns="http://www.w3.org/2000/svg">
<path d="M3.33301 18.333V6.79134H6.04134V4.79134C6.04134 3.69412 6.42676 2.76009 7.19759 1.98926C7.96842 1.21842 8.90245 0.833008 9.99967 0.833008C11.0969 0.833008 12.0309 1.21842 12.8018 1.98926C13.5726 2.76009 13.958 3.69412 13.958 4.79134V6.79134H16.6663V18.333H3.33301ZM7.29134 6.79134H12.708V4.79134C12.708 4.04134 12.4441 3.40245 11.9163 2.87467C11.3886 2.3469 10.7497 2.08301 9.99967 2.08301C9.24967 2.08301 8.61079 2.3469 8.08301 2.87467C7.55523 3.40245 7.29134 4.04134 7.29134 4.79134V6.79134ZM4.58301 17.083H15.4163V8.04134H4.58301V17.083ZM9.99967 14.1663C10.4441 14.1663 10.8226 14.0136 11.1351 13.708C11.4476 13.4025 11.6038 13.0344 11.6038 12.6038C11.6038 12.1872 11.4476 11.8087 11.1351 11.4684C10.8226 11.1281 10.4441 10.958 9.99967 10.958C9.55523 10.958 9.17676 11.1281 8.86426 11.4684C8.55176 11.8087 8.39551 12.1872 8.39551 12.6038C8.39551 13.0344 8.55176 13.4025 8.86426 13.708C9.17676 14.0136 9.55523 14.1663 9.99967 14.1663Z" fill="#1C1C1C"/>
</svg>
