<svg width="20" height="20" viewBox="0 0 20 20" fill="none" xmlns="http://www.w3.org/2000/svg">
<path d="M4.66683 16.646C3.98627 16.646 3.40641 16.4099 2.92725 15.9377C2.44808 15.4654 2.2085 14.8821 2.2085 14.1877H0.833496V3.3335H14.146V6.81266H16.3335L19.1668 10.5835V14.1877H17.6877C17.6877 14.8821 17.4481 15.4654 16.9689 15.9377C16.4897 16.4099 15.9099 16.646 15.2293 16.646C14.5488 16.646 13.9689 16.4099 13.4897 15.9377C13.0106 15.4654 12.771 14.8821 12.771 14.1877H7.12516C7.12516 14.8821 6.88558 15.4654 6.40641 15.9377C5.92725 16.4099 5.34738 16.646 4.66683 16.646ZM4.66683 15.396C5.00016 15.396 5.28489 15.2779 5.521 15.0418C5.75711 14.8057 5.87516 14.521 5.87516 14.1877C5.87516 13.8543 5.75711 13.5696 5.521 13.3335C5.28489 13.0974 5.00016 12.9793 4.66683 12.9793C4.3335 12.9793 4.04877 13.0974 3.81266 13.3335C3.57655 13.5696 3.4585 13.8543 3.4585 14.1877C3.4585 14.521 3.57655 14.8057 3.81266 15.0418C4.04877 15.2779 4.3335 15.396 4.66683 15.396ZM2.0835 12.9377H2.54183C2.77794 12.5627 3.07655 12.2641 3.43766 12.0418C3.79877 11.8196 4.20155 11.7085 4.646 11.7085C5.09044 11.7085 5.49669 11.8231 5.86475 12.0522C6.2328 12.2814 6.53489 12.5766 6.771 12.9377H12.896V4.5835H2.0835V12.9377ZM15.2293 15.396C15.5627 15.396 15.8474 15.2779 16.0835 15.0418C16.3196 14.8057 16.4377 14.521 16.4377 14.1877C16.4377 13.8543 16.3196 13.5696 16.0835 13.3335C15.8474 13.0974 15.5627 12.9793 15.2293 12.9793C14.896 12.9793 14.6113 13.0974 14.3752 13.3335C14.1391 13.5696 14.021 13.8543 14.021 14.1877C14.021 14.521 14.1391 14.8057 14.3752 15.0418C14.6113 15.2779 14.896 15.396 15.2293 15.396ZM14.146 11.146H18.021L15.7085 8.06266H14.146V11.146Z" fill="#1C1C1C"/>
</svg>
