<svg width="20" height="20" viewBox="0 0 20 20" fill="none" xmlns="http://www.w3.org/2000/svg">
<path d="M3.33203 18.3335V6.79183H6.04036V4.79183C6.04036 3.69461 6.42578 2.76058 7.19661 1.98975C7.96745 1.21891 8.90148 0.833496 9.9987 0.833496C11.0959 0.833496 12.0299 1.21891 12.8008 1.98975C13.5716 2.76058 13.957 3.69461 13.957 4.79183V6.79183H16.6654V18.3335H3.33203ZM7.29036 6.79183H12.707V4.79183C12.707 4.04183 12.4431 3.40294 11.9154 2.87516C11.3876 2.34739 10.7487 2.0835 9.9987 2.0835C9.2487 2.0835 8.60981 2.34739 8.08203 2.87516C7.55425 3.40294 7.29036 4.04183 7.29036 4.79183V6.79183ZM4.58203 17.0835H15.4154V8.04183H4.58203V17.0835ZM9.9987 14.1668C10.4431 14.1668 10.8216 14.0141 11.1341 13.7085C11.4466 13.4029 11.6029 13.0349 11.6029 12.6043C11.6029 12.1877 11.4466 11.8092 11.1341 11.4689C10.8216 11.1286 10.4431 10.9585 9.9987 10.9585C9.55425 10.9585 9.17578 11.1286 8.86328 11.4689C8.55078 11.8092 8.39453 12.1877 8.39453 12.6043C8.39453 13.0349 8.55078 13.4029 8.86328 13.7085C9.17578 14.0141 9.55425 14.1668 9.9987 14.1668Z" fill="#1C1C1C"/>
</svg>
