<svg width="20" height="17" viewBox="0 0 20 17" fill="none" xmlns="http://www.w3.org/2000/svg">
<path d="M1 16.5C0.447715 16.5 0 16.0523 0 15.5V1.5C0 0.947715 0.447715 0.5 1 0.5H19C19.5523 0.5 20 0.947715 20 1.5V15.5C20 16.0523 19.5523 16.5 19 16.5H1ZM10.5484 8.59029C10.2154 8.8087 9.78457 8.8087 9.45156 8.59029L1.5 3.375V14C1.5 14.5523 1.94772 15 2.5 15H17.5C18.0523 15 18.5 14.5523 18.5 14V3.375L10.5484 8.59029ZM9.45538 7.09559C9.78657 7.31111 10.2136 7.3114 10.5451 7.09633L18.4 2H1.625L9.45538 7.09559Z" fill="#808080"/>
</svg>
