<svg width="22" height="18" viewBox="0 0 22 18" fill="none" xmlns="http://www.w3.org/2000/svg">
<path d="M14.0886 5.25933C14.4871 4.9803 14.9284 4.88345 15.4123 4.96878C15.8963 5.05412 16.2778 5.29604 16.5568 5.69454C16.8359 6.09305 16.9327 6.53428 16.8474 7.01824C16.762 7.5022 16.5201 7.8837 16.1216 8.16274C15.7231 8.44178 15.2819 8.53863 14.7979 8.45329C14.314 8.36796 13.9325 8.12604 13.6534 7.72753C13.3744 7.32902 13.2775 6.88779 13.3629 6.40383C13.4482 5.91987 13.6901 5.53837 14.0886 5.25933ZM11.5175 1.58738C12.9407 0.590821 14.4993 0.241876 16.1932 0.54055C17.887 0.839222 19.2322 1.70018 20.2288 3.12342C21.2253 4.54665 21.5743 6.1052 21.2756 7.79906C20.9769 9.49292 20.116 10.8381 18.6928 11.8347C17.668 12.5522 16.602 12.9381 15.4946 12.9923C14.3872 13.0466 13.2691 12.7372 12.1403 12.0641L4.54018 17.3857L0.438623 16.6625L1.71672 10.8998L4.5521 10.9506L5.47407 8.26884L7.97212 8.42862L9.0609 7.66625C8.81877 6.56317 8.88658 5.47107 9.26434 4.38997C9.64209 3.30886 10.3931 2.37467 11.5175 1.58738ZM12.4144 2.8683C11.5889 3.4463 11.0193 4.25344 10.7056 5.2897C10.3919 6.32596 10.4344 7.34082 10.8331 8.33428L8.39936 10.0384L6.57385 9.88493L5.63693 12.5454L2.95955 12.4475L2.32584 15.4047L4.17699 15.7311L12.1187 10.1703C12.8475 10.8477 13.7553 11.2354 14.8421 11.3335C15.9289 11.4315 16.9134 11.1716 17.7958 10.5538C18.8633 9.80636 19.509 8.79745 19.733 7.52705C19.957 6.25666 19.6953 5.08775 18.9479 4.02032C18.2004 2.95289 17.1915 2.30718 15.9211 2.08317C14.6508 1.85917 13.4818 2.12087 12.4144 2.8683Z" fill="#808080"/>
</svg>
