<svg width="20" height="20" viewBox="0 0 20 20" fill="none" xmlns="http://www.w3.org/2000/svg">
<path d="M13.0628 14.0212L14.0003 13.0837L10.6878 9.75033V5.56283H9.43783V10.2503L13.0628 14.0212ZM10.0003 18.3337C8.86144 18.3337 7.78505 18.1149 6.77116 17.6774C5.75727 17.2399 4.87185 16.6427 4.11491 15.8857C3.35796 15.1288 2.76074 14.2434 2.32324 13.2295C1.88574 12.2156 1.66699 11.1392 1.66699 10.0003C1.66699 8.86144 1.88574 7.78505 2.32324 6.77116C2.76074 5.75727 3.35796 4.87185 4.11491 4.11491C4.87185 3.35796 5.75727 2.76074 6.77116 2.32324C7.78505 1.88574 8.86144 1.66699 10.0003 1.66699C11.1392 1.66699 12.2156 1.88574 13.2295 2.32324C14.2434 2.76074 15.1288 3.35796 15.8857 4.11491C16.6427 4.87185 17.2399 5.75727 17.6774 6.77116C18.1149 7.78505 18.3337 8.86144 18.3337 10.0003C18.3337 11.1392 18.1149 12.2156 17.6774 13.2295C17.2399 14.2434 16.6427 15.1288 15.8857 15.8857C15.1288 16.6427 14.2434 17.2399 13.2295 17.6774C12.2156 18.1149 11.1392 18.3337 10.0003 18.3337ZM10.0003 17.0837C11.9448 17.0837 13.6114 16.3892 15.0003 15.0003C16.3892 13.6114 17.0837 11.9448 17.0837 10.0003C17.0837 8.05588 16.3892 6.38921 15.0003 5.00033C13.6114 3.61144 11.9448 2.91699 10.0003 2.91699C8.05588 2.91699 6.38921 3.61144 5.00033 5.00033C3.61144 6.38921 2.91699 8.05588 2.91699 10.0003C2.91699 11.9448 3.61144 13.6114 5.00033 15.0003C6.38921 16.3892 8.05588 17.0837 10.0003 17.0837Z" fill="#1C1C1C"/>
</svg>
