<svg width="20" height="20" viewBox="0 0 20 20" fill="none" xmlns="http://www.w3.org/2000/svg">
<path d="M4.66634 16.6455C3.98579 16.6455 3.40592 16.4094 2.92676 15.9372C2.44759 15.465 2.20801 14.8816 2.20801 14.1872H0.833008V3.33301H14.1455V6.81217H16.333L19.1663 10.583V14.1872H17.6872C17.6872 14.8816 17.4476 15.465 16.9684 15.9372C16.4893 16.4094 15.9094 16.6455 15.2288 16.6455C14.5483 16.6455 13.9684 16.4094 13.4893 15.9372C13.0101 15.465 12.7705 14.8816 12.7705 14.1872H7.12467C7.12467 14.8816 6.88509 15.465 6.40592 15.9372C5.92676 16.4094 5.3469 16.6455 4.66634 16.6455ZM4.66634 15.3955C4.99967 15.3955 5.2844 15.2775 5.52051 15.0413C5.75662 14.8052 5.87467 14.5205 5.87467 14.1872C5.87467 13.8538 5.75662 13.5691 5.52051 13.333C5.2844 13.0969 4.99967 12.9788 4.66634 12.9788C4.33301 12.9788 4.04829 13.0969 3.81217 13.333C3.57606 13.5691 3.45801 13.8538 3.45801 14.1872C3.45801 14.5205 3.57606 14.8052 3.81217 15.0413C4.04829 15.2775 4.33301 15.3955 4.66634 15.3955ZM2.08301 12.9372H2.54134C2.77745 12.5622 3.07606 12.2636 3.43717 12.0413C3.79829 11.8191 4.20106 11.708 4.64551 11.708C5.08995 11.708 5.4962 11.8226 5.86426 12.0518C6.23231 12.2809 6.5344 12.5761 6.77051 12.9372H12.8955V4.58301H2.08301V12.9372ZM15.2288 15.3955C15.5622 15.3955 15.8469 15.2775 16.083 15.0413C16.3191 14.8052 16.4372 14.5205 16.4372 14.1872C16.4372 13.8538 16.3191 13.5691 16.083 13.333C15.8469 13.0969 15.5622 12.9788 15.2288 12.9788C14.8955 12.9788 14.6108 13.0969 14.3747 13.333C14.1386 13.5691 14.0205 13.8538 14.0205 14.1872C14.0205 14.5205 14.1386 14.8052 14.3747 15.0413C14.6108 15.2775 14.8955 15.3955 15.2288 15.3955ZM14.1455 11.1455H18.0205L15.708 8.06217H14.1455V11.1455Z" fill="#1C1C1C"/>
</svg>
