<svg width="60" height="60" viewBox="0 0 60 60" fill="none" xmlns="http://www.w3.org/2000/svg">
<path d="M30 26.187L22.125 18.312V3.68701H37.938V18.312L30 26.187ZM41.688 37.875L33.813 30L41.688 22.062H56.313V37.875H41.688ZM3.68701 37.875V22.062H18.312L26.187 30L18.312 37.875H3.68701ZM22.125 56.313V41.688L30 33.813L37.938 41.688V56.313H22.125ZM30 19.125L32.8125 16.3125V8.74951H27.2505V16.3125L30 19.125ZM8.74951 32.7495H16.3125L19.125 30L16.3125 27.1875H8.74951V32.7495ZM27.2505 51.2505H32.8125V43.6875L30 40.875L27.2505 43.6875V51.2505ZM43.6875 32.7495H51.2505V27.1875H43.6875L40.875 30L43.6875 32.7495Z" fill="white"/>
</svg>
