<svg width="60" height="60" viewBox="0 0 60 60" fill="none" xmlns="http://www.w3.org/2000/svg">
<path d="M2.68848 48.4995L7.81248 11.5005H52.25L57.3125 48.4995H47.126L39.251 40.563H20.813L12.875 48.4995H2.68848ZM10.313 43.188L18.4385 35.0625H41.6255L49.751 43.188H51.0635L47.3135 16.9995H12.7505L9.00048 43.188H10.313ZM43.1885 32.313C43.8545 32.313 44.4375 32.063 44.9375 31.563C45.4375 31.063 45.6875 30.4795 45.6875 29.8125C45.6875 29.1455 45.4375 28.562 44.9375 28.062C44.4375 27.562 43.8545 27.312 43.1885 27.312C42.5215 27.312 41.938 27.562 41.438 28.062C40.938 28.562 40.688 29.1455 40.688 29.8125C40.688 30.4795 40.938 31.063 41.438 31.563C41.938 32.063 42.5215 32.313 43.1885 32.313ZM38.2505 24.75C38.9585 24.75 39.5525 24.5 40.0325 24C40.5115 23.5 40.751 22.9165 40.751 22.2495C40.751 21.5415 40.5115 20.948 40.0325 20.469C39.5525 19.99 38.9585 19.7505 38.2505 19.7505C37.5835 19.7505 37 19.99 36.5 20.469C36 20.948 35.75 21.5415 35.75 22.2495C35.75 22.9165 36 23.5 36.5 24C37 24.5 37.5835 24.75 38.2505 24.75ZM19.001 32.0625H22.313V27.687H26.6885V24.375H22.313V19.9995H19.001V24.375H14.6255V27.687H19.001V32.0625Z" fill="white"/>
</svg>
