<svg width="60" height="60" viewBox="0 0 60 60" fill="none" xmlns="http://www.w3.org/2000/svg">
<g clip-path="url(#clip0_1_133)">
<path d="M53.187 39.9375H50.688V56.688L-2.74951 30.063L50.688 3.438V20.187H53.187V25.6875H42.687V20.187H45.1875V12.4995L33.75 18.1245C34.917 19.9165 35.8335 21.7915 36.4995 23.7495C37.1665 25.7085 37.5 27.792 37.5 30C37.5 32.25 37.156 34.3645 36.468 36.3435C35.781 38.3225 34.8335 40.229 33.6255 42.063L45.1245 47.688V39.9375H42.687V34.3125H53.187V39.9375ZM28.6245 39.4995C29.6245 38.1245 30.427 36.6455 31.032 35.0625C31.636 33.4795 31.938 31.792 31.938 30C31.938 28.208 31.646 26.5415 31.062 25.0005C30.479 23.4585 29.6875 22 28.6875 20.625L9.62549 30.063L28.6245 39.4995Z" fill="white"/>
</g>
<defs>
<clipPath id="clip0_1_133">
<rect width="60" height="60" fill="white"/>
</clipPath>
</defs>
</svg>
