<svg width="60" height="60" viewBox="0 0 60 60" fill="none" xmlns="http://www.w3.org/2000/svg">
<path d="M10.9367 36.188C10.6027 36.355 10.2482 36.3655 9.87323 36.2195C9.49823 36.0735 9.22773 35.792 9.06173 35.375L7.24823 30.563C7.04023 29.98 6.94673 29.4175 6.96773 28.8755C6.98873 28.3335 7.24923 27.9585 7.74923 27.7505C8.74923 27.3335 9.70723 27.469 10.6232 28.157C11.5402 28.844 12.2072 29.75 12.6242 30.875L13.5617 33.4385C13.7277 33.7715 13.7377 34.1045 13.5917 34.4375C13.4467 34.7715 13.2282 35.001 12.9362 35.126L10.9367 36.188ZM26.2487 55.5635C25.4157 55.5635 24.6342 55.3865 23.9042 55.0325C23.1752 54.6775 22.5607 54.1875 22.0607 53.5625L12.5612 42.188C12.1032 41.646 11.9052 41.042 11.9672 40.376C12.0302 39.709 12.3117 39.167 12.8117 38.75C13.3527 38.292 13.9567 38.0945 14.6237 38.1575C15.2907 38.2195 15.8322 38.5005 16.2482 39.0005L22.0607 45.938V44.3135C22.1027 44.1045 22.1652 43.875 22.2482 43.625C22.3322 43.375 22.4367 43.125 22.5617 42.875L19.8737 35.1875C19.6237 34.5625 19.6447 33.948 19.9367 33.344C20.2277 32.74 20.7277 32.313 21.4367 32.063C22.0617 31.855 22.6867 31.8965 23.3117 32.1875C23.9367 32.4795 24.3532 32.959 24.5612 33.626L26.9987 40.625H28.7492V33.0635C28.7492 32.3965 28.9887 31.8235 29.4677 31.3445C29.9467 30.8655 30.5402 30.626 31.2482 30.626C31.9572 30.626 32.5512 30.8655 33.0302 31.3445C33.5092 31.8235 33.7487 32.3965 33.7487 33.0635V40.625H35.5607L36.8732 35C37.0402 34.375 37.4152 33.875 37.9982 33.5C38.5822 33.125 39.2072 33.021 39.8732 33.188C40.4982 33.355 40.9982 33.7195 41.3732 34.2815C41.7482 34.8445 41.8527 35.459 41.6867 36.125L40.6862 40.625H41.3117C41.4777 40.625 41.6547 40.646 41.8427 40.688C42.0297 40.73 42.2067 40.7925 42.3737 40.8755L43.3112 38.501C43.5612 37.834 43.9987 37.3545 44.6237 37.0625C45.2487 36.7715 45.8737 36.751 46.4987 37.001C47.1237 37.251 47.5717 37.6885 47.8427 38.3135C48.1137 38.9385 48.1242 39.5635 47.8742 40.1885L45.5612 46.313V50.9375C45.5612 52.1875 45.1132 53.271 44.2172 54.188C43.3212 55.105 42.2482 55.5635 40.9982 55.5635H26.2487ZM19.3112 15.6875C18.9362 15.7295 18.5927 15.6255 18.2807 15.3755C17.9677 15.1255 17.7902 14.813 17.7482 14.438L17.2487 9.626C17.1657 8.959 17.3427 8.365 17.7797 7.844C18.2177 7.323 18.7907 7.021 19.4987 6.938C20.1657 6.855 20.7597 7.032 21.2807 7.469C21.8007 7.907 22.1027 8.48 22.1867 9.188L22.6862 13.9385C22.7282 14.3135 22.6242 14.6465 22.3742 14.9375C22.1242 15.2295 21.8117 15.417 21.4367 15.5L19.3112 15.6875ZM20.6237 29C20.2487 29.084 19.8842 29.0115 19.5302 28.7825C19.1762 28.5525 18.9782 28.2295 18.9362 27.8135L18.2492 21.5C18.1652 20.792 18.3422 20.1775 18.7802 19.6565C19.2172 19.1355 19.7902 18.8335 20.4992 18.7505C21.1652 18.6675 21.7587 18.8445 22.2797 19.2815C22.8007 19.7195 23.1027 20.2925 23.1857 21.0005L23.8112 26.9375C23.8942 27.2715 23.8212 27.5735 23.5922 27.8435C23.3632 28.1145 23.1027 28.3125 22.8107 28.4375L20.6237 29ZM26.8742 50.6255H40.6232V45.563H26.8742V50.6255ZM30.1862 27.5C29.8112 27.5 29.4777 27.3545 29.1857 27.0635C28.8947 26.7715 28.7492 26.438 28.7492 26.063V20C28.7492 19.292 28.9887 18.6985 29.4677 18.2195C29.9467 17.7405 30.5402 17.501 31.2482 17.501C31.9572 17.501 32.5512 17.7405 33.0302 18.2195C33.5092 18.6985 33.7487 19.292 33.7487 20V26.063C33.7487 26.48 33.6132 26.8235 33.3422 27.0935C33.0712 27.3645 32.7482 27.5 32.3732 27.5H30.1862ZM30.1862 14.375C29.8112 14.375 29.4777 14.24 29.1857 13.97C28.8947 13.699 28.7492 13.376 28.7492 13.001V6.938C28.7492 6.23 28.9887 5.6365 29.4677 5.1575C29.9467 4.6775 30.5402 4.4375 31.2482 4.4375C31.9572 4.4375 32.5512 4.6775 33.0302 5.1575C33.5092 5.6365 33.7487 6.23 33.7487 6.938V13.001C33.7487 13.376 33.6132 13.699 33.3422 13.97C33.0712 14.24 32.7482 14.375 32.3732 14.375H30.1862ZM41.0612 30.3125L38.9357 29.75C38.6027 29.625 38.3217 29.4275 38.0927 29.1575C37.8637 28.8865 37.7697 28.584 37.8107 28.25L38.4992 22.25C38.5822 21.584 38.8842 21.0215 39.4052 20.5625C39.9262 20.1045 40.5197 19.917 41.1857 20C41.8947 20.084 42.4677 20.3865 42.9047 20.9075C43.3427 21.4275 43.5197 22.042 43.4357 22.751L42.8117 29.126C42.7697 29.542 42.5717 29.8645 42.2177 30.0935C41.8637 30.3235 41.4782 30.3965 41.0612 30.3125ZM42.4982 17.1875L40.3112 17C39.9362 16.917 39.6237 16.7295 39.3737 16.4375C39.1237 16.1465 39.0197 15.8135 39.0617 15.4385L39.5612 10.688C39.6442 9.98 39.9462 9.407 40.4672 8.969C40.9882 8.532 41.5822 8.355 42.2492 8.438C42.9572 8.521 43.5297 8.823 43.9667 9.344C44.4047 9.865 44.5822 10.459 44.4992 11.126L44.0612 15.938C44.0192 16.313 43.8422 16.6255 43.5302 16.8755C43.2172 17.1255 42.8732 17.2295 42.4982 17.1875ZM47.8112 34.313L45.6857 33.626C45.3527 33.542 45.0927 33.3335 44.9057 33.0005C44.7177 32.6675 44.6862 32.334 44.8112 32L45.6857 28.688C45.8527 28.021 46.2382 27.5105 46.8422 27.1565C47.4462 26.8025 48.0607 26.709 48.6857 26.876C49.3527 27.084 49.8527 27.4695 50.1857 28.0325C50.5197 28.5945 50.6032 29.188 50.4362 29.813L49.5617 33.3125C49.4367 33.6875 49.1967 33.9795 48.8417 34.1885C48.4877 34.3965 48.1442 34.438 47.8112 34.313ZM50.4362 24.3125L48.3737 23.75C47.9987 23.667 47.7072 23.4485 47.4992 23.0945C47.2902 22.7405 47.2482 22.376 47.3732 22.001L48.1232 19.313C48.4152 18.313 48.7592 17.3755 49.1552 16.5005C49.5512 15.6255 50.1867 15.292 51.0617 15.5C52.1027 15.75 52.7277 16.4375 52.9367 17.5625C53.1447 18.6875 53.0822 19.8335 52.7492 21.0005L52.1237 23.3135C51.9987 23.6885 51.7797 23.9695 51.4667 24.1565C51.1547 24.3445 50.8112 24.3965 50.4362 24.3125Z" fill="#265A94"/>
</svg>
