<svg width="60" height="60" viewBox="0 0 60 60" fill="none" xmlns="http://www.w3.org/2000/svg">
<g clip-path="url(#clip0_267_6488)">
<path d="M53.1865 39.938H50.6875V56.6885L-2.75 30.0635L50.6875 3.43848V20.1875H53.1865V25.688H42.6865V20.1875H45.187V12.5L33.7495 18.125C34.9165 19.917 35.833 21.792 36.499 23.75C37.166 25.709 37.4995 27.7925 37.4995 30.0005C37.4995 32.2505 37.1555 34.365 36.4675 36.344C35.7805 38.323 34.833 40.2295 33.625 42.0635L45.124 47.6885V39.938H42.6865V34.313H53.1865V39.938ZM28.624 39.5C29.624 38.125 30.4265 36.646 31.0315 35.063C31.6355 33.48 31.9375 31.7925 31.9375 30.0005C31.9375 28.2085 31.6455 26.542 31.0615 25.001C30.4785 23.459 29.687 22.0005 28.687 20.6255L9.625 30.0635L28.624 39.5Z" fill="white"/>
</g>
<defs>
<clipPath id="clip0_267_6488">
<rect width="60" height="60" fill="white"/>
</clipPath>
</defs>
</svg>
