<svg width="60" height="60" viewBox="0 0 60 60" fill="none" xmlns="http://www.w3.org/2000/svg">
<path d="M12.8135 24.4384L18.125 26.7499C18.75 25.5839 19.396 24.4279 20.063 23.2819C20.73 22.1359 21.4175 21.0214 22.1255 19.9384L18.125 19.1254L12.8135 24.4384ZM22.5635 30.0634L30.251 37.7509C32.542 36.6259 34.667 35.4279 36.626 34.1569C38.584 32.8859 40.2715 31.5419 41.6885 30.1249C44.8135 26.9589 47.1675 23.6779 48.7505 20.2819C50.3335 16.8859 51.167 13.1463 51.251 9.06335C47.126 9.14635 43.3655 9.97935 39.9695 11.5624C36.5735 13.1464 33.313 15.5009 30.188 18.6259C28.771 20.0419 27.4275 21.7294 26.1575 23.6884C24.8865 25.6464 23.6885 27.7714 22.5635 30.0634ZM36.188 24.1249C35.355 23.2919 34.9385 22.2609 34.9385 21.0319C34.9385 19.8029 35.355 18.7714 36.188 17.9374C37.021 17.1044 38.0525 16.6879 39.2825 16.6879C40.5115 16.6879 41.5425 17.1044 42.3755 17.9374C43.2085 18.7714 43.625 19.8029 43.625 21.0319C43.625 22.2609 43.2085 23.2919 42.3755 24.1249C41.5425 24.9589 40.5115 25.3759 39.2825 25.3759C38.0525 25.3759 37.021 24.9589 36.188 24.1249ZM35.813 47.5009L41.126 42.1879L40.376 38.1259C39.292 38.8759 38.1775 39.5839 37.0325 40.2499C35.8865 40.9169 34.73 41.5419 33.563 42.1249L35.813 47.5009ZM56.75 3.56285C57.209 9.77085 56.5215 15.3334 54.6875 20.2504C52.8545 25.1674 49.8545 29.7089 45.6875 33.8749L45.4385 34.1254L45.251 34.3129L46.5635 41.0629C46.7715 41.9799 46.7295 42.8759 46.4375 43.7509C46.1465 44.6259 45.6885 45.3964 45.0635 46.0624L34.001 57.1879L28.0625 43.3759L16.9385 32.2504L3.125 26.3134L14.2505 15.2508C14.9175 14.5838 15.678 14.1149 16.532 13.8439C17.386 13.5729 18.292 13.5209 19.25 13.6878L25.9385 15.0633C26.0215 14.9794 26.0945 14.9169 26.1575 14.8758C26.2195 14.8338 26.292 14.7713 26.375 14.6883C30.542 10.5213 35.084 7.51085 40.001 5.65685C44.917 3.80285 50.5 3.10485 56.75 3.56285ZM8.2505 39.9379C9.9175 38.2709 11.9175 37.4273 14.2505 37.4073C16.5835 37.3863 18.5835 38.2089 20.2505 39.8749C21.8755 41.4999 22.6775 43.4794 22.6565 45.8134C22.6355 48.1464 21.8125 50.1464 20.1875 51.8134C18.9375 53.0634 16.9585 54.1049 14.2505 54.9379C11.5425 55.7709 7.876 56.4374 3.251 56.9374C3.751 52.3124 4.407 48.6249 5.219 45.8749C6.032 43.1249 7.0425 41.1459 8.2505 39.9379ZM12.188 43.8124C11.688 44.3544 11.261 45.1464 10.907 46.1884C10.553 47.2294 10.23 48.5624 9.938 50.1874C11.563 49.8964 12.8965 49.5634 13.9385 49.1884C14.9795 48.8134 15.75 48.3759 16.25 47.8759C16.875 47.3339 17.1875 46.6564 17.1875 45.8434C17.1875 45.0314 16.896 44.3339 16.313 43.7509C15.73 43.1669 15.032 42.8853 14.219 42.9063C13.407 42.9274 12.73 43.2294 12.188 43.8124Z" fill="#265A94"/>
</svg>
