<svg width="60" height="60" viewBox="0 0 60 60" fill="none" xmlns="http://www.w3.org/2000/svg">
<path d="M27.25 12.499V1.5625H32.749V12.499H27.25ZM44.2495 19.5625L40.375 15.6865L48.124 7.9375L52 11.812L44.2495 19.5625ZM47.5 32.749V27.25H58.4365V32.749H47.5ZM27.25 58.4365V47.5H32.749V58.4365H27.25ZM15.6865 19.5625L7.999 11.875L11.875 8.062L19.624 15.7495L15.6865 19.5625ZM48.124 52.0615L40.375 44.2495L44.1865 40.4365L52.0615 47.9995L48.124 52.0615ZM1.5625 32.749V27.25H12.499V32.749H1.5625ZM11.9365 52L7.999 48.124L15.6865 40.4365L17.6875 42.3115L19.687 44.2495L11.9365 52ZM29.9995 44.749C25.8745 44.749 22.385 43.3115 19.531 40.4365C16.677 37.5615 15.25 34.0825 15.25 29.9995C15.25 25.8745 16.6875 22.385 19.5625 19.531C22.4375 16.677 25.9165 15.25 29.9995 15.25C34.1245 15.25 37.614 16.6875 40.468 19.5625C43.322 22.4375 44.749 25.9165 44.749 29.9995C44.749 34.1245 43.3115 37.614 40.4365 40.468C37.5615 43.322 34.0825 44.749 29.9995 44.749ZM29.9995 39.25C32.5825 39.25 34.77 38.354 36.562 36.562C38.354 34.77 39.25 32.5825 39.25 29.9995C39.25 27.4165 38.354 25.229 36.562 23.437C34.77 21.645 32.5825 20.749 29.9995 20.749C27.4165 20.749 25.229 21.645 23.437 23.437C21.645 25.229 20.749 27.4165 20.749 29.9995C20.749 32.5825 21.645 34.77 23.437 36.562C25.229 38.354 27.4165 39.25 29.9995 39.25Z" fill="#265A94"/>
</svg>
