<svg width="60" height="59" viewBox="0 0 60 59" fill="none" xmlns="http://www.w3.org/2000/svg">
<rect x="0.75" width="58.5" height="59" rx="29.25" fill="#265A94"/>
<path d="M29.7997 42.858C27.8906 42.858 26.1903 42.5298 24.6989 41.8736C23.2159 41.2088 22.044 40.2969 21.1832 39.1378C20.331 37.9702 19.892 36.6236 19.8665 35.098H25.4403C25.4744 35.7372 25.6832 36.2997 26.0668 36.7855C26.4588 37.2628 26.9787 37.6335 27.6264 37.8977C28.2741 38.1619 29.0028 38.294 29.8125 38.294C30.6562 38.294 31.402 38.1449 32.0497 37.8466C32.6974 37.5483 33.2045 37.1349 33.571 36.6065C33.9375 36.0781 34.1207 35.4687 34.1207 34.7784C34.1207 34.0795 33.9247 33.4616 33.5327 32.9247C33.1491 32.3793 32.5952 31.9531 31.8707 31.6463C31.1548 31.3395 30.3026 31.1861 29.3139 31.1861H26.8722V27.1207H29.3139C30.1491 27.1207 30.8864 26.9759 31.5256 26.6861C32.1733 26.3963 32.6761 25.9957 33.0341 25.4844C33.392 24.9645 33.571 24.3594 33.571 23.669C33.571 23.0128 33.4134 22.4375 33.098 21.9432C32.7912 21.4403 32.3565 21.0483 31.794 20.767C31.2401 20.4858 30.5923 20.3452 29.8509 20.3452C29.1009 20.3452 28.4148 20.4815 27.7926 20.7543C27.1705 21.0185 26.6719 21.3977 26.2969 21.892C25.9219 22.3864 25.7216 22.9659 25.696 23.6307H20.3906C20.4162 22.1222 20.8466 20.7926 21.6818 19.642C22.517 18.4915 23.642 17.5923 25.0568 16.9446C26.4801 16.2884 28.0866 15.9602 29.8764 15.9602C31.6832 15.9602 33.2642 16.2884 34.6193 16.9446C35.9744 17.6009 37.027 18.4872 37.777 19.6037C38.5355 20.7116 38.9105 21.956 38.902 23.3366C38.9105 24.8026 38.4545 26.0256 37.5341 27.0057C36.6222 27.9858 35.4332 28.608 33.9673 28.8722V29.0767C35.8935 29.3239 37.3594 29.9929 38.3651 31.0838C39.3793 32.1662 39.8821 33.5213 39.8736 35.1491C39.8821 36.6406 39.4517 37.9659 38.5824 39.125C37.7216 40.2841 36.5327 41.196 35.0156 41.8608C33.4986 42.5256 31.7599 42.858 29.7997 42.858Z" fill="#F9F7F7"/>
</svg>
