<svg width="59" height="59" viewBox="0 0 59 59" fill="none" xmlns="http://www.w3.org/2000/svg">
<rect x="0.25" width="58.5" height="59" rx="29.25" fill="#265A94"/>
<path d="M20.1222 42.5V38.5114L29.4418 29.8821C30.2344 29.1151 30.8991 28.4247 31.4361 27.8111C31.9815 27.1974 32.3949 26.5966 32.6761 26.0085C32.9574 25.4119 33.098 24.7685 33.098 24.0781C33.098 23.3111 32.9233 22.6506 32.5739 22.0966C32.2244 21.5341 31.7472 21.1037 31.142 20.8054C30.5369 20.4986 29.8509 20.3452 29.0838 20.3452C28.2827 20.3452 27.5838 20.5071 26.9872 20.831C26.3906 21.1548 25.9304 21.6193 25.6065 22.2244C25.2827 22.8295 25.1207 23.5497 25.1207 24.3849H19.8665C19.8665 22.6719 20.2543 21.1847 21.0298 19.9233C21.8054 18.6619 22.892 17.6861 24.2898 16.9957C25.6875 16.3054 27.2983 15.9602 29.1222 15.9602C30.9972 15.9602 32.6293 16.2926 34.0185 16.9574C35.4162 17.6136 36.5028 18.5256 37.2784 19.6932C38.054 20.8608 38.4418 22.1989 38.4418 23.7074C38.4418 24.696 38.2457 25.6719 37.8537 26.6349C37.4702 27.598 36.7841 28.6676 35.7955 29.8438C34.8068 31.0114 33.4134 32.4134 31.6151 34.0497L27.7926 37.7955V37.9744H38.7869V42.5H20.1222Z" fill="#F9F7F7"/>
</svg>
